# xmcd CD database file
#
# Track frame offsets:
#	150
#	42117
#	71007
#	88537
#	110437
#	147045
#	171215
#
# Disc length: 2694 seconds
#
# Revision: 0
# Processed by: cddbd v1.5.2PL0 Copyright (c) Steve Scherf et al.
# Submitted via: CDex 1.70beta2
#
DISCID=570a8407
DTITLE=Eric Watson - Your tonight is my tomorrow
DYEAR=1987
DGENRE=Jazz
TTITLE0=Punching Paich Patch
TTITLE1=Walking duet
TTITLE2=Tag zone
TTITLE3=The girl who never sang
TTITLE4=Last request
TTITLE5=Situation tragedy
TTITLE6=Your tonight is my tomoorow
EXTD=YEAR: 1987
EXTT0=
EXTT1=
EXTT2=
EXTT3=
EXTT4=
EXTT5=
EXTT6=
PLAYORDER=
